<?xml version="1.0" encoding="utf-8"?>
<!-- Generator: Adobe Illustrator 24.2.1, SVG Export Plug-In . SVG Version: 6.00 Build 0)  -->
<svg version="1.1" id="Layer_1" xmlns="http://www.w3.org/2000/svg" xmlns:xlink="http://www.w3.org/1999/xlink" x="0px" y="0px"
	 viewBox="0 0 109.5 155.8" style="enable-background:new 0 0 109.5 155.8;" xml:space="preserve">
<style type="text/css">
	.st0{fill:#EE1E40;}
	.st1{fill:#E41E2A;}
	.st2{fill:none;stroke:#FFFFFF;stroke-width:3;stroke-miterlimit:10;}
	.st3{fill:#FFFFFF;}
</style>
<path class="st0" d="M54.9,0.3C24.7,0.3,0.1,24.9,0.1,55.1c0,10.2,2.8,20.2,8.2,28.7l42.8,70.1c0.7,1.2,1.8,1.9,3.1,2.1
	c1.7,0.3,3.7-0.5,4.7-2.2l43-70.7c5.1-8.4,7.8-18.2,7.8-28C109.6,24.9,85.1,0.3,54.9,0.3z"/>
<path class="st1" d="M54.9,82.4v73.6c1.6,0,3.2-0.7,4-2.2l43-70.7c5.1-8.4,7.8-18.2,7.8-28c0-30.2-24.5-54.8-54.8-54.8v27.4"/>
<circle class="st2" cx="55.1" cy="55.7" r="42.4"/>
<g>
	<g>
		<g>
			<g>
				<path class="st3" d="M48,47.8h-1.2c-0.5,0-1,0.4-1,1s0.4,1,1,1h0.7l0.9,1.3c0.2,0.3,0.5,0.4,0.8,0.4c0.2,0,0.4-0.1,0.6-0.2
					c0.4-0.3,0.5-0.9,0.2-1.3l-1.2-1.7C48.6,47.9,48.3,47.8,48,47.8z"/>
				<path class="st3" d="M60.3,51.2c0.2,0.1,0.4,0.2,0.6,0.2c0.3,0,0.6-0.1,0.8-0.4l0.9-1.3h0.7c0.5,0,1-0.4,1-1s-0.4-1-1-1h-1.2
					c-0.3,0-0.6,0.1-0.8,0.4l-1.2,1.7C59.8,50.3,59.9,50.9,60.3,51.2z"/>
				<path class="st3" d="M88.4,44.3c-0.1-0.5-0.2-0.9-0.5-1.3c-0.1-0.2-0.2-0.3-0.3-0.5c-0.1-0.2-0.2-0.3-0.4-0.4
					c-0.1-0.1-0.3-0.3-0.5-0.4L76.4,34c0,0,0,0,0,0c-0.1-0.1-0.2-0.2-0.4-0.2c0,0-0.1-0.1-0.1-0.1c-0.1-0.1-0.2-0.1-0.3-0.2
					c0,0-0.1-0.1-0.1-0.1c-0.1-0.1-0.2-0.1-0.3-0.2c-0.1,0-0.1-0.1-0.2-0.1c-0.1,0-0.2-0.1-0.3-0.1c-0.1,0-0.1-0.1-0.2-0.1
					c-0.1,0-0.1-0.1-0.2-0.1c-0.1,0-0.2-0.1-0.2-0.1c0,0-0.1,0-0.1,0c-0.6-0.2-1.3-0.4-1.9-0.4c0,0-0.1,0-0.1,0c-0.1,0-0.2,0-0.3,0
					c-0.1,0-0.1,0-0.2,0c-0.1,0-0.2,0-0.3,0c-0.1,0-0.2,0-0.3,0l0,0c-0.2,0-0.4,0-0.6,0c-0.1,0-0.3,0-0.4,0c-0.3,0-0.7,0.1-1,0.2
					l-8.6,1.9c-1.7-0.8-3.5-1.3-5.4-1.3c-1.8,0-3.7,0.4-5.3,1.3l-8.4-1.9c-0.2,0-0.3-0.1-0.5-0.1c0,0,0,0,0,0c-0.1,0-0.3,0-0.4-0.1
					c0,0-0.1,0-0.1,0c-0.1,0-0.3,0-0.4,0c0,0-0.1,0-0.1,0c-0.1,0-0.2,0-0.4,0c-0.1,0-0.1,0-0.2,0c0,0,0,0,0,0c0,0-0.1,0-0.1,0
					c-0.2,0-0.4,0-0.5,0c0,0,0,0-0.1,0c-1.3,0.1-2.5,0.5-3.7,1.1c0,0,0,0-0.1,0c-0.1,0-0.1,0.1-0.2,0.1c-0.1,0-0.1,0.1-0.2,0.1
					c0,0-0.1,0.1-0.1,0.1c-0.1,0.1-0.2,0.2-0.3,0.2c0,0,0,0,0,0l-10.5,7.6c0,0,0,0,0,0c-0.1,0.1-0.1,0.1-0.2,0.2c0,0,0,0-0.1,0
					c-0.1,0-0.1,0.1-0.2,0.1c0,0,0,0,0,0c-0.1,0.1-0.1,0.1-0.2,0.2c-0.1,0.1-0.1,0.1-0.2,0.2c-0.2,0.3-0.4,0.6-0.6,1
					c0,0.1-0.1,0.2-0.1,0.3c-0.1,0.2-0.1,0.4-0.1,0.6c-0.1,0.4-0.1,0.8,0,1.2c0,0.1,0,0.2,0,0.3c0,0,0,0,0,0c0,0.2,0.1,0.4,0.1,0.6
					c0,0,0,0,0,0.1c0,0.2,0.1,0.3,0.1,0.5c0,0,0,0,0,0.1c0,0,0,0,0,0c0.7,2.8,2.4,7,5.9,10.8c3.9,4.1,9,6.7,15.5,8
					c-0.2,0.2-0.3,0.3-0.5,0.4c-0.6,0.3-1.2,0.5-1.9,0.5c-0.3,0-0.7,0-1-0.1c-0.3,0-0.5-0.1-0.7-0.1c-0.8,0-1.1,0.4-1.3,0.7
					c-0.1,0.2-0.3,0.7,0.1,1.2c0.6,1,2.7,2.5,5.3,2.5c0,0,0,0,0,0c1.5,0,3-0.5,4.4-1.4c0.5-0.4,1-0.8,1.5-1.2
					c0.3,2.7,0.5,4.7,0.5,5.9v0.3c0,0.5,0.4,1,1,1c0.5,0,1-0.4,1-1v-0.3c0-1.9-0.5-5.7-0.9-8.6c0,0,0,0,0,0c0-0.2,0-0.3-0.1-0.5
					c0-0.1,0-0.3-0.1-0.4c0,0,0-0.1,0-0.1c0-0.1,0-0.2-0.1-0.3c0,0,0-0.1,0-0.1c0-0.1,0-0.1-0.1-0.2c0,0,0-0.1,0-0.1
					c0-0.1,0-0.1-0.1-0.2c0,0,0-0.1-0.1-0.1c0-0.1-0.1-0.1-0.1-0.2c0,0,0-0.1-0.1-0.1c0-0.1-0.1-0.1-0.1-0.2c0,0,0-0.1-0.1-0.1
					c0-0.1-0.1-0.2-0.1-0.2c0,0,0-0.1-0.1-0.1c-0.1-0.1-0.1-0.2-0.2-0.3c0,0,0,0,0,0c-0.1-0.1-0.1-0.2-0.2-0.3c0,0,0,0,0-0.1
					c-0.1-0.1-0.1-0.2-0.2-0.2c0,0-0.1-0.1-0.1-0.1c-0.1-0.1-0.1-0.1-0.2-0.2c0,0-0.1-0.1-0.1-0.1c-0.1-0.1-0.1-0.1-0.2-0.2
					c0,0-0.1-0.1-0.1-0.1c-0.1-0.1-0.1-0.1-0.2-0.2c0,0-0.1-0.1-0.1-0.1c-0.1-0.1-0.1-0.1-0.2-0.2c0,0-0.1-0.1-0.1-0.1
					c0,0,0,0-0.1,0l0.4-1.7c0.4-1.4,0.2-2.9-0.5-4.2l-1.8-3.3c-0.7-1.3-0.9-2.8-0.6-4.3c0.3-1.1,0.3-2.2,0.1-3.3l-0.2-1.1
					c-0.2-1.2,0.2-2.4,1.1-3.2l2-1.7c1.8-1.5,4.1-2.4,6.5-2.4s4.7,0.9,6.5,2.4l2,1.7c0.9,0.8,1.3,2,1.1,3.2l-0.2,1.1
					c-0.2,1.1-0.2,2.2,0.1,3.3c0.3,1.5,0.2,3-0.6,4.3l-1.8,3.3c-0.7,1.3-0.9,2.8-0.5,4.2l0.4,1.7c0,0,0,0,0,0c0,0-0.1,0.1-0.1,0.1
					c-0.1,0.1-0.1,0.1-0.2,0.2c0,0-0.1,0.1-0.1,0.1c-0.1,0.1-0.1,0.1-0.2,0.2c0,0-0.1,0.1-0.1,0.1c-0.1,0.1-0.1,0.1-0.2,0.2
					c0,0-0.1,0.1-0.1,0.1c-0.1,0.1-0.1,0.1-0.2,0.2c0,0-0.1,0.1-0.1,0.1c-0.1,0.1-0.1,0.1-0.2,0.2c0,0,0,0-0.1,0.1
					c-0.2,0.2-0.3,0.4-0.4,0.6c0,0,0,0.1,0,0.1c0,0.1-0.1,0.2-0.1,0.2c0,0,0,0.1-0.1,0.1c0,0.1-0.1,0.1-0.1,0.2c0,0,0,0.1-0.1,0.1
					c0,0.1-0.1,0.1-0.1,0.2c0,0,0,0.1-0.1,0.1c0,0.1-0.1,0.1-0.1,0.2c0,0,0,0.1,0,0.1c0,0.1,0,0.2-0.1,0.2c0,0,0,0.1,0,0.1
					c0,0.1,0,0.2-0.1,0.3c0,0,0,0.1,0,0.1c0,0.1,0,0.3-0.1,0.4c0,0.2,0,0.3-0.1,0.5c0,0,0,0,0,0c0,0.2,0,0.3-0.1,0.5c0,0,0,0,0,0
					c0,0,0,0,0,0c-0.4,2.9-0.8,6.3-0.8,8.1v4.1c0,1.6,1.3,2.9,2.9,2.9c1.5,0,2.7-1.1,2.9-2.6h4v0.3c0,4.4-3.6,8-8,8
					c-2.1,0-4.2-0.8-5.7-2.4c-1.5-1.5-2.4-3.5-2.4-5.7v-0.5c0-0.5-0.4-1-1-1c-0.5,0-1,0.4-1,1v0.5c0,2.7,1,5.1,2.9,7
					c1.9,1.9,4.4,2.9,7,2.9c5.5,0,9.9-4.5,9.9-9.9v-0.5c0.5-0.3,0.8-0.8,0.8-1.4v-1.1c0-0.9-0.7-1.6-1.6-1.6h-6.1
					c-0.9,0-1.6,0.7-1.6,1.6V77c0,0.5,0.3,1,0.7,1.3c0,0.5-0.4,1-1,1c-0.5,0-1-0.4-1-1v-4.1c0-1.1,0.2-3.2,0.5-5.9
					c0.5,0.4,0.9,0.8,1.5,1.1c1.4,1,2.9,1.4,4.4,1.4c0,0,0,0,0,0c2.6,0,4.7-1.4,5.3-2.5c0.4-0.6,0.2-1,0.1-1.2
					c-0.2-0.3-0.5-0.7-1.3-0.7c-0.2,0-0.5,0-0.7,0.1c-0.3,0-0.6,0.1-1,0.1c-0.7,0-1.3-0.2-1.9-0.5c-0.2-0.1-0.4-0.3-0.5-0.4
					c3.7-0.7,6.9-1.8,9.8-3.5c3.5-2,6.3-4.6,8.5-7.9c0.3-0.4,0.2-1-0.3-1.3c-0.4-0.3-1-0.2-1.3,0.3C79.5,59,73.4,62.7,65.4,64
					c-0.6-1.1-1.1-2.3-1.4-3.5c0,0,0,0,0,0l-0.6-2.3c-0.2-1-0.1-2,0.4-2.8l1.8-3.3c0.9-1.7,1.2-3.7,0.7-5.7
					c-0.2-0.8-0.2-1.7-0.1-2.5l0.2-1.1c0.1-0.6,0.1-1.3,0-1.9l2.8-0.6c1.6-0.4,3.3-0.2,4.8,0.5c1.7,0.8,3.5,1.5,5.8,2.3l6.7,2.2
					c0,0.1,0,0.1,0,0.2c-0.1,0.2-0.1,0.5-0.2,0.8c-0.1,0.1-0.1,0.3-0.1,0.4c-0.3,1-0.6,2.2-1.2,3.4c-0.2,0.5,0,1,0.5,1.3
					c0.5,0.2,1,0,1.3-0.5c0.6-1.4,1.1-2.8,1.4-3.9c0,0,0,0,0,0c0,0,0-0.1,0-0.1c0-0.1,0-0.1,0-0.2c0,0,0-0.1,0-0.1
					c0-0.1,0-0.1,0-0.2c0,0,0,0,0,0c0,0,0,0,0,0c0,0,0-0.1,0-0.1c0,0,0,0,0,0c0-0.1,0-0.1,0-0.1l0,0c0,0,0,0,0,0
					c0-0.1,0-0.2,0.1-0.3c0,0,0,0,0,0v0c0,0,0,0,0,0c0,0,0,0,0,0c0-0.1,0-0.2,0-0.3c0-0.2,0-0.4,0-0.6
					C88.5,44.7,88.5,44.5,88.4,44.3z M47.6,62.5C47.6,62.5,47.6,62.5,47.6,62.5c0.1,0.1,0.1,0.1,0.2,0.2c0,0,0,0,0,0.1
					c0.1,0.1,0.1,0.1,0.2,0.2c0,0,0,0,0,0c0.1,0.1,0.1,0.1,0.2,0.2c0,0,0,0,0,0.1c0,0.1,0.1,0.1,0.1,0.2c0,0,0,0,0,0.1
					c0,0.1,0.1,0.1,0.1,0.2c0,0,0,0,0,0c0,0.1,0.1,0.2,0.1,0.2c0,0,0,0,0,0.1c0,0.1,0.1,0.1,0.1,0.2c0,0,0,0,0,0.1
					c0,0.1,0.1,0.2,0.1,0.2c0,0,0,0,0,0c0,0.1,0.1,0.2,0.1,0.3c0,0,0,0.1,0,0.1c0,0.1,0,0.1,0,0.2c0,0,0,0.1,0,0.1
					c0,0.1,0,0.2,0,0.3c0,0.1,0,0.2,0.1,0.3c0,0,0,0.1,0,0.1c0,0,0,0.1,0,0.1c-0.6,0.7-1.4,1.4-2.2,2c-1.1,0.7-2.2,1.1-3.4,1.1
					c0,0,0,0,0,0c-0.9,0-1.6-0.2-2.2-0.5c0.9,0,1.8-0.3,2.6-0.8c1.7-1,2.9-3.6,3.5-5.4C47.5,62.4,47.5,62.4,47.6,62.5z M46.2,55.3
					c0.5,0.9,0.6,1.9,0.4,2.8L46,60.5c-0.3,1.1-0.8,2.4-1.4,3.5c-14.7-2.5-19.3-12-20.7-17.3c0-0.2-0.1-0.4-0.1-0.5
					c-0.1-0.3-0.1-0.5-0.2-0.8c0-0.1,0-0.1,0-0.2l6.7-2.2c2.3-0.8,4.1-1.5,5.8-2.3c1.5-0.7,3.2-0.9,4.8-0.5l2.7,0.6
					c-0.1,0.6-0.1,1.3,0,1.9l0.2,1.1c0.2,0.8,0.1,1.7-0.1,2.5c-0.5,1.9-0.2,3.9,0.7,5.7L46.2,55.3z M47.3,36l-2,1.7
					c-0.4,0.4-0.8,0.8-1.1,1.2v0l-2.9-0.7c-0.7-0.2-1.4-0.2-2-0.2c-1.4,0-2.7,0.3-4,0.9c-1.6,0.8-3.4,1.5-5.6,2.2l-4.5,1.5l9.7-7.1
					c0.1-0.1,0.2-0.1,0.3-0.2c0,0,0.1,0,0.1-0.1c0.1,0,0.1-0.1,0.2-0.1c0.1,0,0.1-0.1,0.2-0.1c0,0,0,0,0,0c0.9-0.5,1.9-0.8,2.9-0.9
					c0,0,0,0,0,0c0.2,0,0.3,0,0.5,0c0,0,0,0,0.1,0c0.1,0,0.2,0,0.4,0c0,0,0,0,0,0c0.1,0,0.2,0,0.4,0c0,0,0,0,0,0c0.1,0,0.2,0,0.3,0
					c0,0,0,0,0.1,0c0.1,0,0.3,0,0.4,0.1l6.6,1.5C47.4,35.9,47.3,35.9,47.3,36z M63.2,76.2h5.5v0.4h-5.5V76.2z M66.1,67.7
					c0.8,0.5,1.7,0.7,2.6,0.8c-0.6,0.3-1.3,0.5-2.2,0.5c-1.1,0-2.3-0.4-3.4-1.1c-0.9-0.6-1.6-1.2-2.2-2c0-0.2,0.1-0.4,0.1-0.6
					c0,0,0,0,0,0c0-0.1,0-0.2,0-0.3c0,0,0-0.1,0-0.1c0-0.1,0-0.1,0-0.2c0,0,0-0.1,0-0.1c0-0.1,0-0.2,0.1-0.2c0,0,0,0,0,0
					c0-0.1,0-0.1,0.1-0.2c0,0,0-0.1,0-0.1c0-0.1,0-0.1,0.1-0.2c0,0,0-0.1,0-0.1c0-0.1,0.1-0.2,0.1-0.2c0,0,0,0,0,0
					c0-0.1,0.1-0.1,0.1-0.2c0,0,0-0.1,0-0.1c0-0.1,0.1-0.1,0.1-0.2c0,0,0,0,0-0.1c0-0.1,0.1-0.1,0.1-0.2c0,0,0,0,0-0.1
					c0-0.1,0.1-0.1,0.1-0.2c0,0,0,0,0.1-0.1c0,0,0.1-0.1,0.1-0.1c0,0,0,0,0.1-0.1c0.1-0.1,0.1-0.1,0.2-0.2
					C63.2,64.1,64.4,66.7,66.1,67.7z M66.2,39.9C66.2,39.8,66.2,39.8,66.2,39.9C66.2,39.8,66.2,39.8,66.2,39.9L66.2,39.9z
					 M66.3,40.1C66.3,40.1,66.3,40.1,66.3,40.1C66.3,40.1,66.3,40.1,66.3,40.1C66.3,40.1,66.3,40.1,66.3,40.1z M80.5,41.1
					c-2.2-0.7-4-1.4-5.6-2.2c-1.2-0.6-2.6-0.9-4-0.9c-0.7,0-1.4,0.1-2,0.2L65.8,39c-0.3-0.5-0.6-0.9-1.1-1.3l-2-1.7
					c0,0-0.1-0.1-0.1-0.1l6.8-1.5c0.3-0.1,0.5-0.1,0.8-0.1c0.1,0,0.3,0,0.4,0c0.1,0,0.3,0,0.4,0l0.1,0c0,0,0.1,0,0.1,0
					c0.1,0,0.3,0,0.4,0c0,0,0.1,0,0.1,0c0.1,0,0.2,0,0.2,0c0,0,0,0,0,0c0.1,0,0.2,0,0.2,0c0.1,0,0.3,0,0.4,0.1
					c0.3,0.1,0.5,0.1,0.7,0.2c0.1,0,0.2,0.1,0.2,0.1c0,0,0,0,0.1,0c0.1,0,0.1,0.1,0.2,0.1c0,0,0.1,0,0.1,0.1c0.1,0,0.1,0,0.2,0.1
					c0.1,0,0.1,0.1,0.2,0.1c0.1,0,0.1,0,0.2,0.1c0.1,0,0.2,0.1,0.2,0.1c0,0,0.1,0,0.1,0.1c0.1,0,0.1,0.1,0.2,0.1c0,0,0.1,0,0.1,0.1
					c0.1,0.1,0.2,0.1,0.3,0.2l9.7,7.1L80.5,41.1z"/>
			</g>
		</g>
	</g>
</g>
</svg>
